<mxfile host="65bd71144e">
    <diagram id="QOmvYlBEMhs3jjYEqnPi" name="PÃ¡gina-1">
        <mxGraphModel dx="1387" dy="1937" grid="1" gridSize="10" guides="1" tooltips="1" connect="1" arrows="1" fold="1" page="1" pageScale="1" pageWidth="827" pageHeight="1169" math="0" shadow="0">
            <root>
                <mxCell id="0"/>
                <mxCell id="1" parent="0"/>
                <mxCell id="82" value="" style="rounded=0;whiteSpace=wrap;html=1;fontFamily=Times New Roman;fontSize=30;fontColor=#000066;gradientColor=#E6FFCC;gradientDirection=north;fillColor=#E2FFD9;" parent="1" vertex="1">
                    <mxGeometry x="425" y="612.5" width="135" height="150" as="geometry"/>
                </mxCell>
                <mxCell id="69" value="" style="rounded=0;whiteSpace=wrap;html=1;fontFamily=Times New Roman;fontSize=30;fontColor=#000066;gradientColor=#E6FFCC;gradientDirection=north;fillColor=#E2FFD9;" parent="1" vertex="1">
                    <mxGeometry x="320" y="295" width="135" height="150" as="geometry"/>
                </mxCell>
                <mxCell id="2" value="&lt;h1&gt;&lt;font color=&quot;#cc0000&quot; face=&quot;Times New Roman&quot; style=&quot;font-size: 40px;&quot;&gt;Universidades&lt;/font&gt;&lt;/h1&gt;" style="rounded=0;whiteSpace=wrap;html=1;" parent="1" vertex="1">
                    <mxGeometry x="260" y="140" width="260" height="75" as="geometry"/>
                </mxCell>
                <mxCell id="6" value="" style="endArrow=none;html=1;entryX=0.25;entryY=0;entryDx=0;entryDy=0;exitX=0.5;exitY=1;exitDx=0;exitDy=0;strokeWidth=4;strokeColor=#0066CC;" parent="1" source="7" target="2" edge="1">
                    <mxGeometry width="50" height="50" relative="1" as="geometry">
                        <mxPoint x="300" y="120" as="sourcePoint"/>
                        <mxPoint x="440" y="180" as="targetPoint"/>
                    </mxGeometry>
                </mxCell>
                <mxCell id="7" value="&lt;h1 style=&quot;line-height: 140%;&quot;&gt;&lt;u&gt;Id_Uni&lt;/u&gt;&lt;/h1&gt;" style="ellipse;whiteSpace=wrap;html=1;" parent="1" vertex="1">
                    <mxGeometry x="70" y="20" width="160" height="70" as="geometry"/>
                </mxCell>
                <mxCell id="8" value="" style="endArrow=none;html=1;exitX=0.5;exitY=1;exitDx=0;exitDy=0;strokeWidth=4;strokeColor=#0066CC;entryX=0.75;entryY=0;entryDx=0;entryDy=0;" parent="1" source="68" target="2" edge="1">
                    <mxGeometry width="50" height="50" relative="1" as="geometry">
                        <mxPoint x="515" y="110" as="sourcePoint"/>
                        <mxPoint x="540" y="140" as="targetPoint"/>
                    </mxGeometry>
                </mxCell>
                <mxCell id="10" value="&lt;h1&gt;&lt;font color=&quot;#000066&quot;&gt;N:M&lt;/font&gt;&lt;/h1&gt;" style="rhombus;whiteSpace=wrap;html=1;rounded=0;fillColor=#CAE3FC;strokeColor=#6c8ebf;" parent="1" vertex="1">
                    <mxGeometry x="335" y="310" width="110" height="120" as="geometry"/>
                </mxCell>
                <mxCell id="12" value="" style="endArrow=none;html=1;fontFamily=Times New Roman;fontSize=23;fontColor=#FF3333;entryX=0.5;entryY=1;entryDx=0;entryDy=0;exitX=0.5;exitY=0;exitDx=0;exitDy=0;strokeWidth=4;strokeColor=#0066CC;" parent="1" source="10" target="2" edge="1">
                    <mxGeometry width="50" height="50" relative="1" as="geometry">
                        <mxPoint x="470" y="320" as="sourcePoint"/>
                        <mxPoint x="520" y="270" as="targetPoint"/>
                    </mxGeometry>
                </mxCell>
                <mxCell id="13" value="" style="endArrow=none;html=1;exitX=1;exitY=0.5;exitDx=0;exitDy=0;entryX=0;entryY=1;entryDx=0;entryDy=0;strokeWidth=4;strokeColor=#0066CC;" parent="1" source="14" target="10" edge="1">
                    <mxGeometry width="50" height="50" relative="1" as="geometry">
                        <mxPoint x="230" y="460" as="sourcePoint"/>
                        <mxPoint x="260" y="500" as="targetPoint"/>
                    </mxGeometry>
                </mxCell>
                <mxCell id="14" value="&lt;h1&gt;&lt;span style=&quot;color: rgb(240, 240, 240); font-family: Helvetica; font-style: normal; font-variant-ligatures: normal; font-variant-caps: normal; letter-spacing: normal; orphans: 2; text-align: center; text-indent: 0px; text-transform: none; widows: 2; word-spacing: 0px; -webkit-text-stroke-width: 0px; background-color: rgb(42, 37, 47); text-decoration-thickness: initial; text-decoration-style: initial; text-decoration-color: initial; float: none; display: inline !important;&quot;&gt;&lt;font style=&quot;font-size: 24px;&quot;&gt;Doc_Op1&lt;/font&gt;&lt;/span&gt;&lt;/h1&gt;" style="ellipse;whiteSpace=wrap;html=1;" parent="1" vertex="1">
                    <mxGeometry x="100" y="400" width="130" height="70" as="geometry"/>
                </mxCell>
                <mxCell id="15" value="" style="endArrow=none;html=1;entryX=0;entryY=0;entryDx=0;entryDy=0;exitX=1;exitY=0.5;exitDx=0;exitDy=0;strokeWidth=4;strokeColor=#0066CC;" parent="1" source="16" target="10" edge="1">
                    <mxGeometry width="50" height="50" relative="1" as="geometry">
                        <mxPoint x="90" y="270" as="sourcePoint"/>
                        <mxPoint x="-10.000000000000227" y="319.9999999999999" as="targetPoint"/>
                    </mxGeometry>
                </mxCell>
                <mxCell id="16" value="&lt;h1&gt;Cod_Com1&lt;/h1&gt;" style="ellipse;whiteSpace=wrap;html=1;" parent="1" vertex="1">
                    <mxGeometry x="80" y="290" width="150" height="70" as="geometry"/>
                </mxCell>
                <mxCell id="17" value="&lt;h1&gt;&lt;font style=&quot;font-size: 33px;&quot;&gt;Colegios&lt;/font&gt;&lt;/h1&gt;" style="whiteSpace=wrap;html=1;rounded=0;fontColor=#CC0000;" parent="1" vertex="1">
                    <mxGeometry x="880" y="355" width="290" height="70" as="geometry"/>
                </mxCell>
                <mxCell id="19" value="" style="endArrow=none;html=1;entryX=0.25;entryY=0;entryDx=0;entryDy=0;exitX=0.5;exitY=1;exitDx=0;exitDy=0;strokeWidth=4;strokeColor=#0066CC;" parent="1" source="20" target="17" edge="1">
                    <mxGeometry width="50" height="50" relative="1" as="geometry">
                        <mxPoint x="935" y="325" as="sourcePoint"/>
                        <mxPoint x="974.9999999999998" y="354.9999999999999" as="targetPoint"/>
                    </mxGeometry>
                </mxCell>
                <mxCell id="20" value="&lt;h1&gt;&lt;u&gt;Id_Col&lt;/u&gt;&lt;/h1&gt;" style="ellipse;whiteSpace=wrap;html=1;" parent="1" vertex="1">
                    <mxGeometry x="770" y="235" width="135" height="75" as="geometry"/>
                </mxCell>
                <mxCell id="21" value="" style="endArrow=none;html=1;entryX=0.75;entryY=0;entryDx=0;entryDy=0;exitX=0.5;exitY=1;exitDx=0;exitDy=0;strokeWidth=4;strokeColor=#0066CC;" parent="1" source="22" target="17" edge="1">
                    <mxGeometry width="50" height="50" relative="1" as="geometry">
                        <mxPoint x="1125" y="305" as="sourcePoint"/>
                        <mxPoint x="1024.9999999999998" y="354.9999999999999" as="targetPoint"/>
                    </mxGeometry>
                </mxCell>
                <mxCell id="22" value="&lt;h1&gt;Ubicacion_Col&lt;/h1&gt;" style="ellipse;whiteSpace=wrap;html=1;" parent="1" vertex="1">
                    <mxGeometry x="1130" y="220" width="175" height="80" as="geometry"/>
                </mxCell>
                <mxCell id="23" value="&lt;h1&gt;Nombre_Col&lt;/h1&gt;" style="ellipse;whiteSpace=wrap;html=1;" parent="1" vertex="1">
                    <mxGeometry x="940" y="230" width="152.5" height="75" as="geometry"/>
                </mxCell>
                <mxCell id="25" value="" style="endArrow=none;html=1;entryX=0.5;entryY=0;entryDx=0;entryDy=0;exitX=0.5;exitY=1;exitDx=0;exitDy=0;strokeWidth=4;strokeColor=#0066CC;" parent="1" source="23" target="17" edge="1">
                    <mxGeometry width="50" height="50" relative="1" as="geometry">
                        <mxPoint x="880" y="354.9999999999999" as="sourcePoint"/>
                        <mxPoint x="995" y="400" as="targetPoint"/>
                    </mxGeometry>
                </mxCell>
                <mxCell id="28" value="" style="endArrow=none;html=1;entryX=0.25;entryY=1;entryDx=0;entryDy=0;exitX=0.5;exitY=0;exitDx=0;exitDy=0;strokeWidth=4;strokeColor=#0066CC;" parent="1" source="29" target="17" edge="1">
                    <mxGeometry width="50" height="50" relative="1" as="geometry">
                        <mxPoint x="955" y="560" as="sourcePoint"/>
                        <mxPoint x="972.5" y="590" as="targetPoint"/>
                    </mxGeometry>
                </mxCell>
                <mxCell id="29" value="&lt;h1&gt;Tel_Col&lt;/h1&gt;" style="ellipse;whiteSpace=wrap;html=1;" parent="1" vertex="1">
                    <mxGeometry x="760" y="475" width="135" height="75" as="geometry"/>
                </mxCell>
                <mxCell id="30" value="" style="endArrow=none;html=1;entryX=0.75;entryY=1;entryDx=0;entryDy=0;exitX=0.5;exitY=0;exitDx=0;exitDy=0;strokeWidth=4;strokeColor=#0066CC;" parent="1" source="31" target="17" edge="1">
                    <mxGeometry width="50" height="50" relative="1" as="geometry">
                        <mxPoint x="1145" y="540" as="sourcePoint"/>
                        <mxPoint x="1117.5" y="590" as="targetPoint"/>
                    </mxGeometry>
                </mxCell>
                <mxCell id="31" value="&lt;h1&gt;Director_Col&lt;/h1&gt;" style="ellipse;whiteSpace=wrap;html=1;" parent="1" vertex="1">
                    <mxGeometry x="1130" y="480" width="150" height="80" as="geometry"/>
                </mxCell>
                <mxCell id="32" value="&lt;h1&gt;Correo_Col&lt;/h1&gt;" style="ellipse;whiteSpace=wrap;html=1;" parent="1" vertex="1">
                    <mxGeometry x="910" y="480" width="175" height="80" as="geometry"/>
                </mxCell>
                <mxCell id="33" value="" style="endArrow=none;html=1;exitX=0.5;exitY=0;exitDx=0;exitDy=0;entryX=0.5;entryY=1;entryDx=0;entryDy=0;strokeWidth=4;strokeColor=#0066CC;" parent="1" source="32" target="17" edge="1">
                    <mxGeometry width="50" height="50" relative="1" as="geometry">
                        <mxPoint x="900" y="589.9999999999999" as="sourcePoint"/>
                        <mxPoint x="1010" y="440" as="targetPoint"/>
                    </mxGeometry>
                </mxCell>
                <mxCell id="34" value="&lt;h1&gt;N:1&lt;/h1&gt;" style="rhombus;whiteSpace=wrap;html=1;rounded=0;" parent="1" vertex="1">
                    <mxGeometry x="1370" y="330" width="100" height="120" as="geometry"/>
                </mxCell>
                <mxCell id="36" value="&lt;h1&gt;Estudiantes&lt;/h1&gt;" style="whiteSpace=wrap;html=1;rounded=0;" parent="1" vertex="1">
                    <mxGeometry x="1660" y="355" width="290" height="70" as="geometry"/>
                </mxCell>
                <mxCell id="37" value="" style="endArrow=none;html=1;entryX=0.25;entryY=0;entryDx=0;entryDy=0;exitX=0.5;exitY=1;exitDx=0;exitDy=0;strokeWidth=4;strokeColor=#0066CC;" parent="1" source="38" target="36" edge="1">
                    <mxGeometry width="50" height="50" relative="1" as="geometry">
                        <mxPoint x="1715" y="325" as="sourcePoint"/>
                        <mxPoint x="1754.9999999999998" y="354.9999999999999" as="targetPoint"/>
                    </mxGeometry>
                </mxCell>
                <mxCell id="38" value="&lt;h1&gt;&lt;u&gt;Id_Est&lt;/u&gt;&lt;/h1&gt;" style="ellipse;whiteSpace=wrap;html=1;" parent="1" vertex="1">
                    <mxGeometry x="1530" y="230" width="155" height="80" as="geometry"/>
                </mxCell>
                <mxCell id="39" value="" style="endArrow=none;html=1;entryX=0.75;entryY=0;entryDx=0;entryDy=0;exitX=0.5;exitY=1;exitDx=0;exitDy=0;strokeWidth=4;strokeColor=#0066CC;" parent="1" source="40" target="36" edge="1">
                    <mxGeometry width="50" height="50" relative="1" as="geometry">
                        <mxPoint x="1905" y="305" as="sourcePoint"/>
                        <mxPoint x="1804.9999999999998" y="354.9999999999999" as="targetPoint"/>
                    </mxGeometry>
                </mxCell>
                <mxCell id="40" value="&lt;h1&gt;Apellido_Est&lt;/h1&gt;" style="ellipse;whiteSpace=wrap;html=1;" parent="1" vertex="1">
                    <mxGeometry x="1930" y="240" width="160" height="72.5" as="geometry"/>
                </mxCell>
                <mxCell id="41" value="&lt;h1&gt;Nom_Est&lt;/h1&gt;" style="ellipse;whiteSpace=wrap;html=1;" parent="1" vertex="1">
                    <mxGeometry x="1730" y="240" width="162.5" height="75" as="geometry"/>
                </mxCell>
                <mxCell id="42" value="" style="endArrow=none;html=1;entryX=0.5;entryY=0;entryDx=0;entryDy=0;exitX=0.5;exitY=1;exitDx=0;exitDy=0;strokeWidth=4;strokeColor=#0066CC;" parent="1" source="41" target="36" edge="1">
                    <mxGeometry width="50" height="50" relative="1" as="geometry">
                        <mxPoint x="1660" y="354.9999999999999" as="sourcePoint"/>
                        <mxPoint x="1775" y="400" as="targetPoint"/>
                    </mxGeometry>
                </mxCell>
                <mxCell id="44" value="" style="endArrow=none;html=1;fontFamily=Times New Roman;fontSize=23;fontColor=#FF3333;exitX=1;exitY=0.5;exitDx=0;exitDy=0;entryX=0;entryY=0.25;entryDx=0;entryDy=0;strokeWidth=3;strokeColor=#0066CC;" parent="1" source="10" target="17" edge="1">
                    <mxGeometry width="50" height="50" relative="1" as="geometry">
                        <mxPoint x="740" y="250" as="sourcePoint"/>
                        <mxPoint x="790" y="200" as="targetPoint"/>
                    </mxGeometry>
                </mxCell>
                <mxCell id="45" value="" style="endArrow=none;html=1;fontFamily=Times New Roman;fontSize=23;fontColor=#FF3333;exitX=1;exitY=0.5;exitDx=0;exitDy=0;entryX=0;entryY=0.5;entryDx=0;entryDy=0;strokeWidth=4;strokeColor=#0066CC;startArrow=none;" parent="1" source="75" target="34" edge="1">
                    <mxGeometry width="50" height="50" relative="1" as="geometry">
                        <mxPoint x="1115" y="355" as="sourcePoint"/>
                        <mxPoint x="1550" y="357.5" as="targetPoint"/>
                    </mxGeometry>
                </mxCell>
                <mxCell id="46" value="" style="endArrow=none;html=1;fontFamily=Times New Roman;fontSize=23;fontColor=#FF3333;exitX=1;exitY=0.5;exitDx=0;exitDy=0;entryX=0;entryY=0.5;entryDx=0;entryDy=0;strokeWidth=4;strokeColor=#0066CC;" parent="1" source="34" target="36" edge="1">
                    <mxGeometry width="50" height="50" relative="1" as="geometry">
                        <mxPoint x="1240" y="240" as="sourcePoint"/>
                        <mxPoint x="1290" y="190" as="targetPoint"/>
                    </mxGeometry>
                </mxCell>
                <mxCell id="47" value="&lt;h1&gt;&lt;font style=&quot;font-size: 30px;&quot;&gt;Usuarios&lt;/font&gt;&lt;/h1&gt;" style="whiteSpace=wrap;html=1;rounded=0;fontFamily=Times New Roman;fontStyle=0" parent="1" vertex="1">
                    <mxGeometry x="872.5" y="800" width="290" height="70" as="geometry"/>
                </mxCell>
                <mxCell id="48" value="" style="endArrow=none;html=1;entryX=0.25;entryY=0;entryDx=0;entryDy=0;exitX=0.5;exitY=1;exitDx=0;exitDy=0;strokeWidth=4;strokeColor=#0066CC;fontFamily=Times New Roman;fontStyle=0" parent="1" source="49" target="47" edge="1">
                    <mxGeometry width="50" height="50" relative="1" as="geometry">
                        <mxPoint x="927.5" y="770" as="sourcePoint"/>
                        <mxPoint x="967.4999999999998" y="799.9999999999999" as="targetPoint"/>
                    </mxGeometry>
                </mxCell>
                <mxCell id="49" value="&lt;h1&gt;&lt;u&gt;Id_Us&lt;/u&gt;&lt;/h1&gt;" style="ellipse;whiteSpace=wrap;html=1;fontFamily=Times New Roman;fontStyle=0" parent="1" vertex="1">
                    <mxGeometry x="760" y="687.5" width="135" height="75" as="geometry"/>
                </mxCell>
                <mxCell id="50" value="" style="endArrow=none;html=1;entryX=0.75;entryY=0;entryDx=0;entryDy=0;exitX=0.5;exitY=1;exitDx=0;exitDy=0;strokeWidth=4;strokeColor=#0066CC;fontFamily=Times New Roman;fontStyle=0" parent="1" source="51" target="47" edge="1">
                    <mxGeometry width="50" height="50" relative="1" as="geometry">
                        <mxPoint x="1117.5" y="750" as="sourcePoint"/>
                        <mxPoint x="1017.4999999999998" y="799.9999999999999" as="targetPoint"/>
                    </mxGeometry>
                </mxCell>
                <mxCell id="51" value="&lt;h1&gt;ContraseÃ±a_Us&lt;/h1&gt;" style="ellipse;whiteSpace=wrap;html=1;fontFamily=Times New Roman;fontStyle=0" parent="1" vertex="1">
                    <mxGeometry x="1122.5" y="685" width="167.5" height="75" as="geometry"/>
                </mxCell>
                <mxCell id="52" value="&lt;h1&gt;Nombre_Us&lt;/h1&gt;" style="ellipse;whiteSpace=wrap;html=1;fontFamily=Times New Roman;fontStyle=0" parent="1" vertex="1">
                    <mxGeometry x="950" y="685" width="135" height="65" as="geometry"/>
                </mxCell>
                <mxCell id="53" value="" style="endArrow=none;html=1;entryX=0.5;entryY=0;entryDx=0;entryDy=0;exitX=0.5;exitY=1;exitDx=0;exitDy=0;strokeWidth=4;strokeColor=#0066CC;fontFamily=Times New Roman;fontStyle=0" parent="1" source="52" target="47" edge="1">
                    <mxGeometry width="50" height="50" relative="1" as="geometry">
                        <mxPoint x="872.5" y="799.9999999999999" as="sourcePoint"/>
                        <mxPoint x="987.5" y="845" as="targetPoint"/>
                    </mxGeometry>
                </mxCell>
                <mxCell id="54" value="" style="endArrow=none;html=1;entryX=0.25;entryY=1;entryDx=0;entryDy=0;exitX=0.5;exitY=0;exitDx=0;exitDy=0;strokeWidth=4;strokeColor=#0066CC;fontFamily=Times New Roman;fontStyle=0" parent="1" source="55" target="47" edge="1">
                    <mxGeometry width="50" height="50" relative="1" as="geometry">
                        <mxPoint x="947.5" y="1005" as="sourcePoint"/>
                        <mxPoint x="965" y="1035" as="targetPoint"/>
                    </mxGeometry>
                </mxCell>
                <mxCell id="55" value="&lt;h1&gt;Correo_Us&lt;/h1&gt;" style="ellipse;whiteSpace=wrap;html=1;fontFamily=Times New Roman;fontStyle=0" parent="1" vertex="1">
                    <mxGeometry x="780" y="920" width="135" height="75" as="geometry"/>
                </mxCell>
                <mxCell id="58" value="&lt;h1&gt;Rol_Us&lt;/h1&gt;" style="ellipse;whiteSpace=wrap;html=1;fontFamily=Times New Roman;fontStyle=0" parent="1" vertex="1">
                    <mxGeometry x="1000" y="940" width="135" height="65" as="geometry"/>
                </mxCell>
                <mxCell id="59" value="" style="endArrow=none;html=1;exitX=0.5;exitY=0;exitDx=0;exitDy=0;entryX=0.5;entryY=1;entryDx=0;entryDy=0;strokeWidth=4;strokeColor=#0066CC;fontFamily=Times New Roman;fontStyle=0" parent="1" source="58" target="47" edge="1">
                    <mxGeometry width="50" height="50" relative="1" as="geometry">
                        <mxPoint x="892.5" y="1035" as="sourcePoint"/>
                        <mxPoint x="1002.5" y="885" as="targetPoint"/>
                    </mxGeometry>
                </mxCell>
                <mxCell id="61" value="" style="endArrow=none;html=1;fontFamily=Times New Roman;fontSize=23;fontColor=#FF3333;entryX=0;entryY=1;entryDx=0;entryDy=0;strokeWidth=4;strokeColor=#0066CC;exitX=0.5;exitY=0;exitDx=0;exitDy=0;" parent="1" source="83" target="17" edge="1">
                    <mxGeometry width="50" height="50" relative="1" as="geometry">
                        <mxPoint x="490" y="625" as="sourcePoint"/>
                        <mxPoint x="890" y="630" as="targetPoint"/>
                        <Array as="points">
                            <mxPoint x="490" y="425"/>
                        </Array>
                    </mxGeometry>
                </mxCell>
                <mxCell id="62" value="" style="endArrow=none;html=1;fontFamily=Times New Roman;fontSize=23;fontColor=#FF3333;exitX=0.5;exitY=1;exitDx=0;exitDy=0;entryX=0;entryY=0.5;entryDx=0;entryDy=0;strokeWidth=4;strokeColor=#0066CC;fontStyle=0" parent="1" source="83" target="47" edge="1">
                    <mxGeometry width="50" height="50" relative="1" as="geometry">
                        <mxPoint x="489.9999999999998" y="749.9999999999998" as="sourcePoint"/>
                        <mxPoint x="870" y="830" as="targetPoint"/>
                        <Array as="points">
                            <mxPoint x="495" y="840"/>
                        </Array>
                    </mxGeometry>
                </mxCell>
                <mxCell id="63" value="" style="endArrow=none;html=1;exitX=1;exitY=0;exitDx=0;exitDy=0;entryX=0.23;entryY=0.738;entryDx=0;entryDy=0;strokeWidth=4;strokeColor=#0066CC;fontFamily=Times New Roman;fontStyle=0;entryPerimeter=0;" parent="1" source="64" target="83" edge="1">
                    <mxGeometry width="50" height="50" relative="1" as="geometry">
                        <mxPoint x="297.5" y="810" as="sourcePoint"/>
                        <mxPoint x="459.9999999999998" y="718.7499999999998" as="targetPoint"/>
                    </mxGeometry>
                </mxCell>
                <mxCell id="64" value="&lt;h1&gt;Doc_Ap1&lt;/h1&gt;" style="ellipse;whiteSpace=wrap;html=1;fontFamily=Times New Roman;fontStyle=0" parent="1" vertex="1">
                    <mxGeometry x="240" y="740" width="130" height="70" as="geometry"/>
                </mxCell>
                <mxCell id="65" value="" style="endArrow=none;html=1;exitX=1;exitY=1;exitDx=0;exitDy=0;strokeWidth=4;strokeColor=#0066CC;fontFamily=Times New Roman;fontStyle=0" parent="1" source="66" target="83" edge="1">
                    <mxGeometry width="50" height="50" relative="1" as="geometry">
                        <mxPoint x="157.5" y="620" as="sourcePoint"/>
                        <mxPoint x="459.9999999999998" y="656.2499999999998" as="targetPoint"/>
                    </mxGeometry>
                </mxCell>
                <mxCell id="66" value="&lt;h1&gt;Doc_I1&lt;/h1&gt;" style="ellipse;whiteSpace=wrap;html=1;fontFamily=Times New Roman;fontStyle=0" parent="1" vertex="1">
                    <mxGeometry x="240" y="585" width="130" height="70" as="geometry"/>
                </mxCell>
                <mxCell id="68" value="&lt;h1 style=&quot;line-height: 140%;&quot;&gt;Nombre_Uni&lt;/h1&gt;" style="ellipse;whiteSpace=wrap;html=1;" parent="1" vertex="1">
                    <mxGeometry x="420" y="20" width="160" height="70" as="geometry"/>
                </mxCell>
                <mxCell id="73" value="&lt;h5&gt;&lt;font color=&quot;#91dbd1&quot;&gt;1 N&lt;/font&gt;&lt;/h5&gt;" style="text;html=1;align=center;verticalAlign=middle;resizable=0;points=[];autosize=1;strokeColor=none;fillColor=none;fontSize=40;fontFamily=Times New Roman;fontColor=#CC0000;" parent="1" vertex="1">
                    <mxGeometry x="360" y="160" width="70" height="160" as="geometry"/>
                </mxCell>
                <mxCell id="74" value="&lt;h6 style=&quot;font-size: 35px;&quot;&gt;1&lt;br style=&quot;font-size: 35px;&quot;&gt;N&lt;/h6&gt;" style="text;html=1;align=center;verticalAlign=middle;resizable=0;points=[];autosize=1;strokeColor=none;fillColor=none;fontSize=35;fontFamily=Times New Roman;fontColor=#91DBD1;" parent="1" vertex="1">
                    <mxGeometry x="665" y="240" width="50" height="260" as="geometry"/>
                </mxCell>
                <mxCell id="76" value="" style="endArrow=none;html=1;fontFamily=Times New Roman;fontSize=23;fontColor=#FF3333;exitX=1;exitY=0.5;exitDx=0;exitDy=0;entryX=0;entryY=0.5;entryDx=0;entryDy=0;strokeWidth=4;strokeColor=#0066CC;" parent="1" source="17" target="75" edge="1">
                    <mxGeometry width="50" height="50" relative="1" as="geometry">
                        <mxPoint x="1170" y="390" as="sourcePoint"/>
                        <mxPoint x="1440" y="390" as="targetPoint"/>
                    </mxGeometry>
                </mxCell>
                <mxCell id="81" value="" style="edgeStyle=none;html=1;strokeColor=#0066CC;strokeWidth=4;fontFamily=Times New Roman;fontSize=40;fontColor=#91DBD1;" parent="1" source="75" target="34" edge="1">
                    <mxGeometry relative="1" as="geometry"/>
                </mxCell>
                <mxCell id="75" value="&lt;h5 style=&quot;font-size: 35px;&quot;&gt;1&lt;br style=&quot;font-size: 35px;&quot;&gt;N&lt;/h5&gt;" style="text;html=1;align=center;verticalAlign=middle;resizable=0;points=[];autosize=1;strokeColor=none;fillColor=none;fontSize=35;fontFamily=Times New Roman;fontColor=#91DBD1;" parent="1" vertex="1">
                    <mxGeometry x="1205" y="285" width="50" height="210" as="geometry"/>
                </mxCell>
                <mxCell id="77" value="&lt;h5 style=&quot;font-size: 35px;&quot;&gt;1&lt;br&gt;N&lt;/h5&gt;" style="text;html=1;align=center;verticalAlign=middle;resizable=0;points=[];autosize=1;strokeColor=none;fillColor=none;fontSize=24;fontFamily=Times New Roman;fontColor=#91DBD1;fontStyle=0" parent="1" vertex="1">
                    <mxGeometry x="802.5" y="320" width="50" height="210" as="geometry"/>
                </mxCell>
                <mxCell id="78" value="&lt;h5 style=&quot;font-size: 36px;&quot;&gt;1&lt;br style=&quot;font-size: 36px;&quot;&gt;1&lt;/h5&gt;" style="text;html=1;align=center;verticalAlign=middle;resizable=0;points=[];autosize=1;strokeColor=none;fillColor=none;fontSize=36;fontFamily=Times New Roman;fontColor=#91DBD1;" parent="1" vertex="1">
                    <mxGeometry x="1570" y="280" width="40" height="220" as="geometry"/>
                </mxCell>
                <mxCell id="80" value="&lt;h5 style=&quot;font-size: 35px;&quot;&gt;1&lt;br&gt;N&lt;/h5&gt;" style="text;html=1;align=center;verticalAlign=middle;resizable=0;points=[];autosize=1;strokeColor=none;fillColor=none;fontSize=24;fontFamily=Times New Roman;fontColor=#91DBD1;fontStyle=0" parent="1" vertex="1">
                    <mxGeometry x="802.5" y="730" width="50" height="210" as="geometry"/>
                </mxCell>
                <mxCell id="83" value="&lt;h1&gt;&lt;font color=&quot;#000066&quot;&gt;N:M&lt;/font&gt;&lt;/h1&gt;" style="rhombus;whiteSpace=wrap;html=1;rounded=0;fillColor=#CAE3FC;strokeColor=#6c8ebf;" parent="1" vertex="1">
                    <mxGeometry x="440" y="627.5" width="110" height="120" as="geometry"/>
                </mxCell>
                <mxCell id="84" value="" style="endArrow=none;html=1;strokeColor=#FFFFFF;strokeWidth=2;fontFamily=Times New Roman;fontSize=35;fontColor=#91DBD1;" parent="1" edge="1">
                    <mxGeometry width="50" height="50" relative="1" as="geometry">
                        <mxPoint x="107.5" y="70" as="sourcePoint"/>
                        <mxPoint x="202.5" y="70" as="targetPoint"/>
                    </mxGeometry>
                </mxCell>
                <mxCell id="86" value="" style="endArrow=none;html=1;strokeColor=#FFFFFF;strokeWidth=2;fontFamily=Times New Roman;fontSize=35;fontColor=#91DBD1;" parent="1" edge="1">
                    <mxGeometry width="50" height="50" relative="1" as="geometry">
                        <mxPoint x="790" y="290" as="sourcePoint"/>
                        <mxPoint x="885" y="290" as="targetPoint"/>
                    </mxGeometry>
                </mxCell>
                <mxCell id="87" value="" style="endArrow=none;html=1;strokeColor=#FFFFFF;strokeWidth=2;fontFamily=Times New Roman;fontSize=35;fontColor=#91DBD1;" parent="1" edge="1">
                    <mxGeometry width="50" height="50" relative="1" as="geometry">
                        <mxPoint x="780" y="740" as="sourcePoint"/>
                        <mxPoint x="875" y="740" as="targetPoint"/>
                    </mxGeometry>
                </mxCell>
                <mxCell id="88" value="" style="endArrow=none;html=1;strokeColor=#FFFFFF;strokeWidth=2;fontFamily=Times New Roman;fontSize=35;fontColor=#91DBD1;" parent="1" edge="1">
                    <mxGeometry width="50" height="50" relative="1" as="geometry">
                        <mxPoint x="1559" y="285" as="sourcePoint"/>
                        <mxPoint x="1654" y="285" as="targetPoint"/>
                    </mxGeometry>
                </mxCell>
                <mxCell id="93" value="&lt;h1 style=&quot;line-height: 140%;&quot;&gt;Ubicacion_Uni&lt;/h1&gt;" style="ellipse;whiteSpace=wrap;html=1;" vertex="1" parent="1">
                    <mxGeometry x="100" y="-70" width="175" height="70" as="geometry"/>
                </mxCell>
                <mxCell id="94" value="&lt;h1 style=&quot;line-height: 140%;&quot;&gt;Correo_Uni&lt;/h1&gt;" style="ellipse;whiteSpace=wrap;html=1;" vertex="1" parent="1">
                    <mxGeometry x="240" width="160" height="70" as="geometry"/>
                </mxCell>
                <mxCell id="95" value="&lt;h1 style=&quot;line-height: 140%;&quot;&gt;SitWeb_Uni&lt;/h1&gt;" style="ellipse;whiteSpace=wrap;html=1;" vertex="1" parent="1">
                    <mxGeometry x="580" y="80" width="160" height="70" as="geometry"/>
                </mxCell>
                <mxCell id="96" value="" style="endArrow=none;html=1;entryX=0.25;entryY=0;entryDx=0;entryDy=0;exitX=0.5;exitY=1;exitDx=0;exitDy=0;strokeWidth=4;strokeColor=#0066CC;" edge="1" parent="1" source="93" target="2">
                    <mxGeometry width="50" height="50" relative="1" as="geometry">
                        <mxPoint x="270" y="30" as="sourcePoint"/>
                        <mxPoint x="435" y="100" as="targetPoint"/>
                    </mxGeometry>
                </mxCell>
                <mxCell id="97" value="" style="endArrow=none;html=1;entryX=0.52;entryY=-0.044;entryDx=0;entryDy=0;exitX=0.5;exitY=1;exitDx=0;exitDy=0;strokeWidth=4;strokeColor=#0066CC;entryPerimeter=0;" edge="1" parent="1" source="94" target="2">
                    <mxGeometry width="50" height="50" relative="1" as="geometry">
                        <mxPoint x="410" y="30" as="sourcePoint"/>
                        <mxPoint x="445" y="150" as="targetPoint"/>
                    </mxGeometry>
                </mxCell>
                <mxCell id="98" value="" style="endArrow=none;html=1;entryX=0.75;entryY=0;entryDx=0;entryDy=0;exitX=0;exitY=1;exitDx=0;exitDy=0;strokeWidth=4;strokeColor=#0066CC;" edge="1" parent="1" source="95" target="2">
                    <mxGeometry width="50" height="50" relative="1" as="geometry">
                        <mxPoint x="310" y="40" as="sourcePoint"/>
                        <mxPoint x="345" y="160" as="targetPoint"/>
                    </mxGeometry>
                </mxCell>
                <mxCell id="99" value="&lt;h1 style=&quot;line-height: 140%;&quot;&gt;Departamento_Uni&lt;/h1&gt;" style="ellipse;whiteSpace=wrap;html=1;" vertex="1" parent="1">
                    <mxGeometry x="300" y="-90" width="240" height="70" as="geometry"/>
                </mxCell>
                <mxCell id="100" value="" style="endArrow=none;html=1;entryX=0.5;entryY=0;entryDx=0;entryDy=0;strokeWidth=4;strokeColor=#0066CC;exitX=0.542;exitY=1;exitDx=0;exitDy=0;exitPerimeter=0;" edge="1" parent="1" source="99" target="2">
                    <mxGeometry width="50" height="50" relative="1" as="geometry">
                        <mxPoint x="470" y="100" as="sourcePoint"/>
                        <mxPoint x="405.20000000000005" y="146.69999999999982" as="targetPoint"/>
                    </mxGeometry>
                </mxCell>
                <mxCell id="101" value="&lt;h1 style=&quot;line-height: 140%;&quot;&gt;TelÃ©fono_Uni&lt;/h1&gt;" style="ellipse;whiteSpace=wrap;html=1;" vertex="1" parent="1">
                    <mxGeometry x="560" y="-20" width="160" height="70" as="geometry"/>
                </mxCell>
                <mxCell id="103" value="" style="endArrow=none;html=1;exitX=0.5;exitY=1;exitDx=0;exitDy=0;strokeWidth=4;strokeColor=#0066CC;entryX=0.75;entryY=0;entryDx=0;entryDy=0;" edge="1" parent="1" source="101" target="2">
                    <mxGeometry width="50" height="50" relative="1" as="geometry">
                        <mxPoint x="503" y="100" as="sourcePoint"/>
                        <mxPoint x="450" y="130" as="targetPoint"/>
                    </mxGeometry>
                </mxCell>
                <mxCell id="111" value="" style="endArrow=none;html=1;entryX=0.25;entryY=1;entryDx=0;entryDy=0;exitX=0.5;exitY=0;exitDx=0;exitDy=0;strokeWidth=4;strokeColor=#0066CC;" edge="1" parent="1" source="112" target="36">
                    <mxGeometry width="50" height="50" relative="1" as="geometry">
                        <mxPoint x="1740" y="580" as="sourcePoint"/>
                        <mxPoint x="1737.5" y="445" as="targetPoint"/>
                    </mxGeometry>
                </mxCell>
                <mxCell id="112" value="&lt;h1&gt;Edad_Est&lt;/h1&gt;" style="ellipse;whiteSpace=wrap;html=1;" vertex="1" parent="1">
                    <mxGeometry x="1580" y="477.5" width="135" height="75" as="geometry"/>
                </mxCell>
                <mxCell id="115" value="&lt;h1&gt;GÃ©nero_Est&lt;/h1&gt;" style="ellipse;whiteSpace=wrap;html=1;" vertex="1" parent="1">
                    <mxGeometry x="1730" y="482.5" width="175" height="80" as="geometry"/>
                </mxCell>
                <mxCell id="116" value="" style="endArrow=none;html=1;exitX=0.5;exitY=0;exitDx=0;exitDy=0;entryX=0.5;entryY=1;entryDx=0;entryDy=0;strokeWidth=4;strokeColor=#0066CC;" edge="1" parent="1" source="115" target="36">
                    <mxGeometry width="50" height="50" relative="1" as="geometry">
                        <mxPoint x="1685" y="609.9999999999999" as="sourcePoint"/>
                        <mxPoint x="1810" y="445" as="targetPoint"/>
                    </mxGeometry>
                </mxCell>
            </root>
        </mxGraphModel>
    </diagram>
</mxfile>